<svg xmlns="http://www.w3.org/2000/svg" viewBox="0 0 512 512">
  <circle cx="256" cy="256" r="226" fill="none" stroke="#4ea72e" stroke-width="44" stroke-linecap="round" stroke-dasharray="664 756" transform="rotate(132 256 256)"/>
  <circle cx="256" cy="256" r="226" fill="none" stroke="#0a5aa4" stroke-width="44" stroke-linecap="round" stroke-dasharray="580 840" transform="rotate(325 256 256)"/>
  <circle cx="256" cy="256" r="168" fill="#f2b705"/>
  <g fill="#3f9b2f" stroke="#3f9b2f" stroke-width="1.2" stroke-linejoin="round" stroke-linecap="round" transform="translate(96 112) scale(9.4)">
    <path d="m17 14 3 3.3a1 1 0 0 1-.7 1.7H4.7a1 1 0 0 1-.7-1.7L7 14h-.3a1 1 0 0 1-.7-1.7L9 9h-.2A1 1 0 0 1 8 7.3L12 3l4 4.3a1 1 0 0 1-.8 1.7H15l3 3.3a1 1 0 0 1-.7 1.7H17Z"/><path d="M12 22v-3" fill="none" stroke-width="1.6"/>
  </g>
  <g fill="#4ea72e" stroke="#4ea72e" stroke-width="1.2" stroke-linejoin="round" stroke-linecap="round" transform="translate(206 146) scale(8.2)">
    <path d="m17 14 3 3.3a1 1 0 0 1-.7 1.7H4.7a1 1 0 0 1-.7-1.7L7 14h-.3a1 1 0 0 1-.7-1.7L9 9h-.2A1 1 0 0 1 8 7.3L12 3l4 4.3a1 1 0 0 1-.8 1.7H15l3 3.3a1 1 0 0 1-.7 1.7H17Z"/><path d="M12 22v-3" fill="none" stroke-width="1.6"/>
  </g>
</svg>
